<svg id="Слой_2" data-name="Слой 2" xmlns="http://www.w3.org/2000/svg" xmlns:xlink="http://www.w3.org/1999/xlink" viewBox="0 0 50 50"><defs><style>.cls-1{fill:url(#Безымянный_градиент_28);}.cls-2{fill:url(#Безымянный_градиент_20);}.cls-3{fill:url(#Безымянный_градиент_29);}.cls-4{fill:#fff;}</style><linearGradient id="Безымянный_градиент_28" x1="1" y1="25" x2="49" y2="25" gradientUnits="userSpaceOnUse"><stop offset="0.05" stop-color="#fff"/><stop offset="1" stop-color="#999" stop-opacity="0.1"/></linearGradient><linearGradient id="Безымянный_градиент_20" x1="482.4" y1="476.68" x2="517.74" y2="512.01" gradientUnits="userSpaceOnUse"><stop offset="0.05" stop-color="#fff"/><stop offset="0.82" stop-color="#b7b7b7" stop-opacity="0.5"/><stop offset="1" stop-color="#999" stop-opacity="0.5"/></linearGradient><linearGradient id="Безымянный_градиент_29" x1="491.75" y1="517.26" x2="513.22" y2="480.07" xlink:href="#Безымянный_градиент_28"/></defs><title>icon pochta</title><circle class="cls-1" cx="25" cy="25" r="24"/><path class="cls-2" d="M500.07,470.34a24,24,0,1,1-24,24,24,24,0,0,1,24-24m0-1a25,25,0,1,0,25,25,25,25,0,0,0-25-25Z" transform="translate(-475.07 -469.34)"/><path class="cls-3" d="M524.07,494.34a24,24,0,0,1-46.58,8.12,44.06,44.06,0,0,1,44.81-17.15A23.83,23.83,0,0,1,524.07,494.34Z" transform="translate(-475.07 -469.34)"/><polygon class="cls-4" points="30.22 24.61 40.14 15.99 40.14 34.01 30.22 24.61"/><polyline class="cls-4" points="9.86 34.01 19.78 24.61 9.86 15.99"/><polygon class="cls-4" points="10.9 14.69 25 26.7 39.09 14.69 10.9 14.69"/><polygon class="cls-4" points="39.09 35.31 10.9 35.31 21.35 25.65 25 28.52 28.65 25.65 39.09 35.31"/></svg>