<svg id="Слой_2" data-name="Слой 2" xmlns="http://www.w3.org/2000/svg" xmlns:xlink="http://www.w3.org/1999/xlink" viewBox="0 0 50 50"><defs><style>.cls-1{fill:url(#Безымянный_градиент_28);}.cls-2{fill:url(#Безымянный_градиент_20);}.cls-3{fill:url(#Безымянный_градиент_29);}.cls-4{fill:#fff;}</style><linearGradient id="Безымянный_градиент_28" x1="1" y1="25" x2="49" y2="25" gradientUnits="userSpaceOnUse"><stop offset="0.05" stop-color="#fff"/><stop offset="1" stop-color="#999" stop-opacity="0.1"/></linearGradient><linearGradient id="Безымянный_градиент_20" x1="482.33" y1="476.33" x2="517.67" y2="511.67" gradientUnits="userSpaceOnUse"><stop offset="0.05" stop-color="#fff"/><stop offset="0.82" stop-color="#b7b7b7" stop-opacity="0.5"/><stop offset="1" stop-color="#999" stop-opacity="0.5"/></linearGradient><linearGradient id="Безымянный_градиент_29" x1="491.68" y1="516.91" x2="513.15" y2="479.73" xlink:href="#Безымянный_градиент_28"/></defs><title>icon wotsapik</title><circle class="cls-1" cx="25" cy="25" r="24"/><path class="cls-2" d="M500,470a24,24,0,1,1-24,24,24,24,0,0,1,24-24m0-1a25,25,0,1,0,25,25,25,25,0,0,0-25-25Z" transform="translate(-475 -469)"/><path class="cls-3" d="M524,494a24,24,0,0,1-46.58,8.12A44.06,44.06,0,0,1,522.23,485,23.83,23.83,0,0,1,524,494Z" transform="translate(-475 -469)"/><path class="cls-4" d="M488.27,491.18s3,6.09,6.56,8.91a34.52,34.52,0,0,0,11,5.39c1.65.23,4.22-.24,5.4-1.41a5.49,5.49,0,0,0,1.74-4.18,1,1,0,0,0-.49-.72c-1.13-.62-4.42-2.41-5-2.6s-1.18-.47-1.65.23a14.64,14.64,0,0,1-2.1,2.82c-.47.23-3.76-1.17-5.86-3.05s-4-4.22-4-4.69,1.17-1.64,1.64-2.11a1.66,1.66,0,0,0,.7-1.4,42.44,42.44,0,0,0-2.18-5.51,1.41,1.41,0,0,0-.71-.73A1,1,0,0,0,493,482c-.93,0-2.11-.24-2.81.47s-2.93,2.79-2.58,5.62A13.57,13.57,0,0,0,488.27,491.18Z" transform="translate(-475 -469)"/></svg>