<svg id="Слой_2" data-name="Слой 2" xmlns="http://www.w3.org/2000/svg" xmlns:xlink="http://www.w3.org/1999/xlink" viewBox="0 0 50 50"><defs><style>.cls-1{fill:url(#Безымянный_градиент_28);}.cls-2{fill:url(#Безымянный_градиент_20);}.cls-3{fill:url(#Безымянный_градиент_29);}.cls-4{fill:#fff;}</style><linearGradient id="Безымянный_градиент_28" x1="1" y1="25" x2="49" y2="25" gradientUnits="userSpaceOnUse"><stop offset="0.05" stop-color="#fff"/><stop offset="1" stop-color="#999" stop-opacity="0.1"/></linearGradient><linearGradient id="Безымянный_градиент_20" x1="482.33" y1="476.33" x2="517.67" y2="511.67" gradientUnits="userSpaceOnUse"><stop offset="0.05" stop-color="#fff"/><stop offset="0.82" stop-color="#b7b7b7" stop-opacity="0.5"/><stop offset="1" stop-color="#999" stop-opacity="0.5"/></linearGradient><linearGradient id="Безымянный_градиент_29" x1="491.68" y1="516.91" x2="513.15" y2="479.73" xlink:href="#Безымянный_градиент_28"/></defs><title>icon telega</title><circle class="cls-1" cx="25" cy="25" r="24"/><path class="cls-2" d="M500,470a24,24,0,1,1-24,24,24,24,0,0,1,24-24m0-1a25,25,0,1,0,25,25,25,25,0,0,0-25-25Z" transform="translate(-475 -469)"/><path class="cls-3" d="M524,494a24,24,0,0,1-46.58,8.12A44.06,44.06,0,0,1,522.23,485,23.83,23.83,0,0,1,524,494Z" transform="translate(-475 -469)"/><path class="cls-4" d="M504.11,484.39c2.74-1.22,5.78-2.44,6.7-1.83s.91,1.53.61,3.35S509,500.83,509,500.83s-.61,5.17-1.83,5.17-1.82-.3-5.78-2.74-6.09-3.65-6.09-4.56,1.53-2.14,5.18-5.48,4.26-4,4-4.57-1.53.31-2.44.91l-9.13,6.09c-.91.61-1.83,1.52-3.65,1.22s-5.79-1.52-6.09-2.13,0-1.22,1.22-1.83S501.37,485.61,504.11,484.39Z" transform="translate(-475 -469)"/></svg>